<svg width="271" height="105" viewBox="0 0 271 105" fill="none" xmlns="http://www.w3.org/2000/svg">
<path d="M68.25 28.875V0H36.75V28.875L52.5 44.625L68.25 28.875ZM28.875 36.75H0V68.25H28.875L44.625 52.5L28.875 36.75ZM36.75 76.125V105H68.25V76.125L52.5 60.375L36.75 76.125Z" fill="#8B5FD9"/>
<path d="M73.9769 67.4742C71.7189 67.4742 69.5379 67.0893 67.4338 66.3195C65.3811 65.5497 63.7902 64.4464 62.6612 63.0095C62.2507 62.445 62.0454 61.8805 62.0454 61.316C62.0454 60.6488 62.302 60.0843 62.8152 59.6224C63.3797 59.1093 63.9955 58.8527 64.6626 58.8527C65.0219 58.8527 65.3811 58.9296 65.7403 59.0836C66.0996 59.1862 66.3818 59.3915 66.5871 59.6994C67.4082 60.6745 68.5115 61.4442 69.8971 62.0087C71.334 62.5733 72.8223 62.8555 74.3618 62.8555C76.158 62.8555 77.6205 62.4193 78.7495 61.5469C79.9298 60.6745 80.52 59.5198 80.52 58.0829C80.52 56.4407 79.8272 55.286 78.4416 54.6189C77.1073 53.9005 75.5421 53.3873 73.746 53.0794C72.1038 52.7714 70.436 52.3352 68.7425 51.7707C67.0489 51.1549 65.6377 50.2825 64.5087 49.1535C63.3797 47.9732 62.8152 46.3823 62.8152 44.3809C62.8152 41.661 63.8416 39.5057 65.8943 37.9148C67.9983 36.3239 70.7952 35.5285 74.2848 35.5285C76.1323 35.5285 77.8258 35.8107 79.3653 36.3752C80.9049 36.8884 82.1879 37.6069 83.2142 38.5306C83.83 39.0438 84.138 39.6853 84.138 40.455C84.138 41.0709 83.907 41.6097 83.4452 42.0716C82.9833 42.5334 82.4444 42.7644 81.8286 42.7644C81.2128 42.7644 80.6226 42.5591 80.0581 42.1486C78.416 40.8143 76.3889 40.1471 73.9769 40.1471C69.8715 40.1471 67.8187 41.5327 67.8187 44.3039C67.8187 45.6382 68.4345 46.5619 69.6662 47.0751C70.9491 47.537 72.6683 48.0245 74.8237 48.5377C75.85 48.743 76.9534 49.0509 78.1337 49.4614C79.3653 49.8206 80.5457 50.3595 81.6747 51.0779C82.8037 51.7451 83.7274 52.6688 84.4459 53.8491C85.1643 54.9781 85.5235 56.4151 85.5235 58.1599C85.5235 60.9311 84.4459 63.1891 82.2905 64.9339C80.1864 66.6274 77.4152 67.4742 73.9769 67.4742ZM96.7322 67.4742C94.7308 67.4742 93.4735 66.5248 92.9603 64.626L88.2647 47.383C88.2133 47.2291 88.1877 47.0751 88.1877 46.9212C88.1877 46.7672 88.1877 46.6389 88.1877 46.5363C88.1877 45.8178 88.4186 45.2277 88.8805 44.7658C89.3937 44.2526 90.0351 43.996 90.8049 43.996C91.3694 43.996 91.8826 44.15 92.3445 44.4579C92.8577 44.7145 93.1656 45.125 93.2682 45.6895L96.1164 59.0836C96.219 59.6481 96.4499 59.9304 96.8092 59.9304C97.1684 59.9304 97.425 59.6481 97.5789 59.0836L101.582 47.2291C101.838 46.5106 102.275 45.9974 102.89 45.6895C103.506 45.3303 104.148 45.1507 104.815 45.1507C105.482 45.1507 106.098 45.3303 106.662 45.6895C107.278 45.9974 107.689 46.5106 107.894 47.2291L111.897 59.0836C112.051 59.6481 112.307 59.9304 112.667 59.9304C113.026 59.9304 113.257 59.6481 113.359 59.0836L116.207 45.6895C116.31 45.125 116.592 44.7145 117.054 44.4579C117.567 44.15 118.106 43.996 118.671 43.996C119.441 43.996 120.056 44.2526 120.518 44.7658C121.031 45.2277 121.288 45.8178 121.288 46.5363C121.288 46.6389 121.288 46.7672 121.288 46.9212C121.288 47.0751 121.262 47.2291 121.211 47.383L116.515 64.626C116.002 66.5248 114.745 67.4742 112.744 67.4742C111.871 67.4742 111.076 67.2176 110.357 66.7044C109.69 66.1399 109.228 65.4471 108.972 64.626L105.431 53.3873C105.225 52.7201 104.994 52.3866 104.738 52.3866C104.43 52.3866 104.173 52.7201 103.968 53.3873L100.504 64.626C100.247 65.4471 99.76 66.1399 99.0415 66.7044C98.3744 67.2176 97.6046 67.4742 96.7322 67.4742ZM135.082 67.4742C132.875 67.4742 130.9 66.961 129.155 65.9346C127.41 64.9082 126.05 63.497 125.075 61.7008C124.1 59.8534 123.612 57.8006 123.612 55.5426C123.612 53.336 124.1 51.3602 125.075 49.6154C126.05 47.8705 127.41 46.5106 129.155 45.5356C130.9 44.5092 132.875 43.996 135.082 43.996C136.519 43.996 137.802 44.2526 138.931 44.7658C140.06 45.2277 141.035 45.8435 141.856 46.6132C141.959 45.8948 142.267 45.356 142.78 44.9967C143.293 44.5862 143.857 44.3809 144.473 44.3809C145.14 44.3809 145.731 44.6118 146.244 45.0737C146.808 45.4842 147.091 46.1257 147.091 46.9981V65.0878C147.091 65.8576 146.808 66.4478 146.244 66.8583C145.731 67.2689 145.14 67.4742 144.473 67.4742C143.806 67.4742 143.19 67.2689 142.626 66.8583C142.113 66.4478 141.856 65.8576 141.856 65.0878V64.7799C141.035 65.601 140.06 66.2425 138.931 66.7044C137.802 67.2176 136.519 67.4742 135.082 67.4742ZM135.544 62.7015C137.494 62.7015 139.034 62.0601 140.163 60.7771C141.292 59.4428 141.856 57.698 141.856 55.5426C141.856 53.4899 141.292 51.8477 140.163 50.6161C139.034 49.3844 137.494 48.7686 135.544 48.7686C133.542 48.7686 131.926 49.3844 130.694 50.6161C129.463 51.8477 128.847 53.4899 128.847 55.5426C128.847 57.698 129.463 59.4428 130.694 60.7771C131.926 62.0601 133.542 62.7015 135.544 62.7015ZM164.899 67.4742C163.462 67.4742 162.18 67.2176 161.05 66.7044C159.921 66.2425 158.946 65.601 158.125 64.7799V75.4798C158.125 76.2496 157.843 76.8397 157.279 77.2503C156.765 77.6608 156.175 77.8661 155.508 77.8661C154.841 77.8661 154.225 77.6608 153.661 77.2503C153.147 76.8397 152.891 76.2496 152.891 75.4798V46.9981C152.891 46.1257 153.147 45.4842 153.661 45.0737C154.225 44.6118 154.841 44.3809 155.508 44.3809C156.124 44.3809 156.688 44.5862 157.202 44.9967C157.715 45.356 158.023 45.8948 158.125 46.6132C158.946 45.8435 159.921 45.2277 161.05 44.7658C162.18 44.2526 163.462 43.996 164.899 43.996C167.157 43.996 169.133 44.5092 170.827 45.5356C172.571 46.5106 173.931 47.8705 174.906 49.6154C175.881 51.3602 176.369 53.336 176.369 55.5426C176.369 57.8006 175.881 59.8534 174.906 61.7008C173.931 63.497 172.571 64.9082 170.827 65.9346C169.133 66.961 167.157 67.4742 164.899 67.4742ZM164.438 62.7015C166.439 62.7015 168.055 62.0601 169.287 60.7771C170.519 59.4428 171.135 57.698 171.135 55.5426C171.135 53.4899 170.519 51.8477 169.287 50.6161C168.055 49.3844 166.439 48.7686 164.438 48.7686C162.487 48.7686 160.948 49.3844 159.819 50.6161C158.69 51.8477 158.125 53.4899 158.125 55.5426C158.125 57.698 158.69 59.4428 159.819 60.7771C160.948 62.0601 162.487 62.7015 164.438 62.7015ZM184.085 67.4742C183.418 67.4742 182.802 67.2176 182.237 66.7044C181.673 66.2425 181.391 65.678 181.391 65.0109V40.1471C181.391 38.7615 181.827 37.7095 182.699 36.9911C183.572 36.2726 184.547 35.9134 185.624 35.9134H193.784C195.529 35.9134 197.145 36.2726 198.634 36.9911C200.173 37.6582 201.405 38.6589 202.328 39.9932C203.252 41.3275 203.714 42.9696 203.714 44.9197C203.714 47.9475 202.739 50.3595 200.789 52.1556C198.89 53.9518 196.581 54.8498 193.861 54.8498H188.703C187.42 54.8498 186.779 55.6196 186.779 57.1592V65.0109C186.779 65.678 186.497 66.2425 185.932 66.7044C185.419 67.2176 184.803 67.4742 184.085 67.4742ZM188.319 50.2312H193.014C194.297 50.2312 195.529 49.8463 196.709 49.0765C197.941 48.3068 198.557 46.9725 198.557 45.0737C198.557 43.5855 197.992 42.4821 196.863 41.7637C195.785 40.9939 194.605 40.609 193.322 40.609H188.55C187.267 40.609 186.625 41.2248 186.625 42.4565V48.1528C186.625 49.5384 187.19 50.2312 188.319 50.2312ZM211.362 67.4742C210.695 67.4742 210.079 67.2689 209.514 66.8583C209.001 66.4478 208.745 65.8576 208.745 65.0878V35.8364C208.745 34.964 209.001 34.3225 209.514 33.912C210.079 33.4501 210.695 33.2192 211.362 33.2192C212.029 33.2192 212.619 33.4501 213.132 33.912C213.697 34.3225 213.979 34.964 213.979 35.8364V65.0878C213.979 65.8576 213.697 66.4478 213.132 66.8583C212.619 67.2689 212.029 67.4742 211.362 67.4742ZM230.251 67.4742C228.045 67.4742 226.069 66.961 224.324 65.9346C222.579 64.9082 221.219 63.497 220.244 61.7008C219.269 59.8534 218.782 57.8006 218.782 55.5426C218.782 53.336 219.269 51.3602 220.244 49.6154C221.219 47.8705 222.579 46.5106 224.324 45.5356C226.069 44.5092 228.045 43.996 230.251 43.996C231.688 43.996 232.971 44.2526 234.1 44.7658C235.229 45.2277 236.204 45.8435 237.025 46.6132C237.128 45.8948 237.436 45.356 237.949 44.9967C238.462 44.5862 239.027 44.3809 239.643 44.3809C240.31 44.3809 240.9 44.6118 241.413 45.0737C241.978 45.4842 242.26 46.1257 242.26 46.9981V65.0878C242.26 65.8576 241.978 66.4478 241.413 66.8583C240.9 67.2689 240.31 67.4742 239.643 67.4742C238.976 67.4742 238.36 67.2689 237.795 66.8583C237.282 66.4478 237.025 65.8576 237.025 65.0878V64.7799C236.204 65.601 235.229 66.2425 234.1 66.7044C232.971 67.2176 231.688 67.4742 230.251 67.4742ZM230.713 62.7015C232.663 62.7015 234.203 62.0601 235.332 60.7771C236.461 59.4428 237.025 57.698 237.025 55.5426C237.025 53.4899 236.461 51.8477 235.332 50.6161C234.203 49.3844 232.663 48.7686 230.713 48.7686C228.712 48.7686 227.095 49.3844 225.864 50.6161C224.632 51.8477 224.016 53.4899 224.016 55.5426C224.016 57.698 224.632 59.4428 225.864 60.7771C227.095 62.0601 228.712 62.7015 230.713 62.7015ZM245.751 46.6132C245.751 45.7922 246.033 45.1507 246.598 44.6888C247.162 44.2269 247.778 43.996 248.445 43.996C249.523 43.996 250.293 44.5349 250.755 45.6125L256.759 60.3152C256.913 60.7258 257.195 60.9311 257.606 60.9311C258.016 60.9311 258.298 60.7514 258.452 60.3922L263.61 45.6895C264.02 44.5605 264.816 43.996 265.996 43.996C266.715 43.996 267.356 44.2269 267.921 44.6888C268.536 45.1507 268.844 45.7152 268.844 46.3823C268.844 46.6389 268.767 46.9981 268.613 47.46L256.836 76.1726C256.425 77.3016 255.63 77.8661 254.449 77.8661C253.782 77.8661 253.141 77.6352 252.525 77.1733C251.961 76.7115 251.678 76.1469 251.678 75.4798C251.678 74.9666 251.755 74.6074 251.909 74.4021L255.681 66.7044C254.603 66.6017 253.859 66.0886 253.449 65.1648L245.905 47.537C245.802 47.1264 245.751 46.8185 245.751 46.6132Z" fill="#8B5FD9"/>
</svg>
