<svg width="250" height="97" viewBox="0 0 250 97" fill="none" xmlns="http://www.w3.org/2000/svg">
<path d="M63.05 26.675V0H33.95V26.675L48.5 41.225L63.05 26.675ZM26.675 33.95H0V63.05H26.675L41.225 48.5L26.675 33.95ZM33.95 70.325V97H63.05V70.325L48.5 55.775L33.95 70.325Z" fill="white"/>
<path d="M68.3407 62.2856C66.2547 62.2856 64.2399 61.9301 62.2961 61.219C60.3998 60.5078 58.9301 59.4886 57.8871 58.1611C57.5079 57.6396 57.3182 57.1181 57.3182 56.5966C57.3182 55.9803 57.5553 55.4588 58.0294 55.0322C58.5509 54.5581 59.1198 54.321 59.7361 54.321C60.0679 54.321 60.3998 54.3922 60.7316 54.5344C61.0635 54.6292 61.3243 54.8188 61.5139 55.1033C62.2724 56.004 63.2917 56.7152 64.5717 57.2367C65.8992 57.7582 67.274 58.0189 68.6963 58.0189C70.3555 58.0189 71.7067 57.6159 72.7497 56.81C73.8401 56.004 74.3853 54.9374 74.3853 53.6099C74.3853 52.0929 73.7452 51.0262 72.4652 50.4099C71.2326 49.7461 69.7866 49.2721 68.1274 48.9876C66.6103 48.7032 65.0695 48.3002 63.505 47.7787C61.9406 47.2098 60.6368 46.4038 59.5938 45.3609C58.5509 44.2705 58.0294 42.8008 58.0294 40.9519C58.0294 38.4392 58.9775 36.4481 60.8739 34.9784C62.8176 33.5088 65.4014 32.7739 68.6251 32.7739C70.3318 32.7739 71.8963 33.0347 73.3186 33.5562C74.7408 34.0303 75.926 34.694 76.8742 35.5473C77.4431 36.0214 77.7275 36.614 77.7275 37.3251C77.7275 37.894 77.5142 38.3918 77.0875 38.8185C76.6609 39.2452 76.1631 39.4585 75.5942 39.4585C75.0253 39.4585 74.4801 39.2689 73.9586 38.8896C72.4415 37.657 70.5689 37.0407 68.3407 37.0407C64.548 37.0407 62.6517 38.3207 62.6517 40.8808C62.6517 42.1134 63.2206 42.9667 64.3584 43.4408C65.5436 43.8675 67.1318 44.3179 69.1229 44.792C70.0711 44.9816 71.0904 45.266 72.1808 45.6453C73.3186 45.9772 74.409 46.475 75.4519 47.1387C76.4949 47.755 77.3483 48.6083 78.012 49.6987C78.6757 50.7417 79.0076 52.0691 79.0076 53.681C79.0076 56.2411 78.012 58.3271 76.0208 59.9389C74.0771 61.5034 71.5171 62.2856 68.3407 62.2856ZM89.3622 62.2856C87.5133 62.2856 86.3518 61.4086 85.8777 59.6545L81.5398 43.7253C81.4924 43.5831 81.4687 43.4408 81.4687 43.2986C81.4687 43.1564 81.4687 43.0379 81.4687 42.943C81.4687 42.2793 81.6821 41.7341 82.1087 41.3074C82.5828 40.8334 83.1754 40.5963 83.8866 40.5963C84.4081 40.5963 84.8821 40.7385 85.3088 41.023C85.7829 41.26 86.0673 41.6393 86.1622 42.1608L88.7933 54.5344C88.8881 55.0559 89.1015 55.3166 89.4333 55.3166C89.7652 55.3166 90.0022 55.0559 90.1445 54.5344L93.8423 43.583C94.0794 42.9193 94.4823 42.4452 95.0512 42.1608C95.6201 41.8289 96.2127 41.663 96.829 41.663C97.4454 41.663 98.0143 41.8289 98.5357 42.1608C99.1046 42.4452 99.4839 42.9193 99.6735 43.583L103.371 54.5344C103.514 55.0559 103.751 55.3166 104.083 55.3166C104.414 55.3166 104.628 55.0559 104.723 54.5344L107.354 42.1608C107.449 41.6393 107.709 41.26 108.136 41.023C108.61 40.7385 109.108 40.5963 109.629 40.5963C110.34 40.5963 110.909 40.8334 111.336 41.3074C111.81 41.7341 112.047 42.2793 112.047 42.943C112.047 43.0379 112.047 43.1564 112.047 43.2986C112.047 43.4408 112.023 43.5831 111.976 43.7253L107.638 59.6545C107.164 61.4086 106.003 62.2856 104.154 62.2856C103.348 62.2856 102.613 62.0486 101.949 61.5745C101.333 61.053 100.906 60.413 100.669 59.6545L97.3979 49.2721C97.2083 48.6557 96.995 48.3476 96.7579 48.3476C96.4735 48.3476 96.2364 48.6557 96.0468 49.2721L92.8467 59.6545C92.6097 60.413 92.1593 61.053 91.4956 61.5745C90.8793 62.0486 90.1682 62.2856 89.3622 62.2856ZM124.79 62.2856C122.752 62.2856 120.926 61.8116 119.314 60.8634C117.703 59.9152 116.446 58.6115 115.546 56.9522C114.645 55.2455 114.194 53.3492 114.194 51.2632C114.194 49.2246 114.645 47.3994 115.546 45.7875C116.446 44.1757 117.703 42.9193 119.314 42.0186C120.926 41.0704 122.752 40.5963 124.79 40.5963C126.118 40.5963 127.303 40.8334 128.346 41.3074C129.389 41.7341 130.29 42.303 131.048 43.0142C131.143 42.3504 131.427 41.8526 131.901 41.5208C132.375 41.1415 132.897 40.9519 133.466 40.9519C134.082 40.9519 134.627 41.1652 135.101 41.5919C135.623 41.9712 135.884 42.5638 135.884 43.3697V60.0812C135.884 60.7923 135.623 61.3375 135.101 61.7167C134.627 62.096 134.082 62.2856 133.466 62.2856C132.85 62.2856 132.281 62.096 131.759 61.7167C131.285 61.3375 131.048 60.7923 131.048 60.0812V59.7967C130.29 60.5552 129.389 61.1478 128.346 61.5745C127.303 62.0486 126.118 62.2856 124.79 62.2856ZM125.217 57.8767C127.018 57.8767 128.441 57.2841 129.484 56.0989C130.527 54.8662 131.048 53.2544 131.048 51.2632C131.048 49.3669 130.527 47.8498 129.484 46.712C128.441 45.5742 127.018 45.0053 125.217 45.0053C123.368 45.0053 121.875 45.5742 120.737 46.712C119.599 47.8498 119.03 49.3669 119.03 51.2632C119.03 53.2544 119.599 54.8662 120.737 56.0989C121.875 57.2841 123.368 57.8767 125.217 57.8767ZM152.336 62.2856C151.008 62.2856 149.823 62.0486 148.78 61.5745C147.737 61.1478 146.836 60.5552 146.078 59.7967V69.6814C146.078 70.3925 145.817 70.9377 145.296 71.3169C144.821 71.6962 144.276 71.8858 143.66 71.8858C143.044 71.8858 142.475 71.6962 141.953 71.3169C141.479 70.9377 141.242 70.3925 141.242 69.6814V43.3697C141.242 42.5638 141.479 41.9712 141.953 41.5919C142.475 41.1652 143.044 40.9519 143.66 40.9519C144.229 40.9519 144.75 41.1415 145.224 41.5208C145.699 41.8526 145.983 42.3504 146.078 43.0142C146.836 42.303 147.737 41.7341 148.78 41.3074C149.823 40.8334 151.008 40.5963 152.336 40.5963C154.422 40.5963 156.247 41.0704 157.811 42.0186C159.423 42.9193 160.68 44.1757 161.58 45.7875C162.481 47.3994 162.931 49.2246 162.931 51.2632C162.931 53.3492 162.481 55.2455 161.58 56.9522C160.68 58.6115 159.423 59.9152 157.811 60.8634C156.247 61.8116 154.422 62.2856 152.336 62.2856ZM151.909 57.8767C153.758 57.8767 155.251 57.2841 156.389 56.0989C157.527 54.8662 158.096 53.2544 158.096 51.2632C158.096 49.3669 157.527 47.8498 156.389 46.712C155.251 45.5742 153.758 45.0053 151.909 45.0053C150.108 45.0053 148.685 45.5742 147.642 46.712C146.599 47.8498 146.078 49.3669 146.078 51.2632C146.078 53.2544 146.599 54.8662 147.642 56.0989C148.685 57.2841 150.108 57.8767 151.909 57.8767ZM170.059 62.2856C169.443 62.2856 168.874 62.0486 168.353 61.5745C167.831 61.1478 167.57 60.6264 167.57 60.01V37.0407C167.57 35.7607 167.973 34.7888 168.779 34.1251C169.585 33.4614 170.486 33.1295 171.482 33.1295H179.02C180.631 33.1295 182.125 33.4614 183.5 34.1251C184.922 34.7414 186.06 35.6659 186.913 36.8985C187.766 38.1311 188.193 39.6482 188.193 41.4497C188.193 44.2468 187.292 46.475 185.491 48.1343C183.737 49.7935 181.603 50.6232 179.091 50.6232H174.326C173.141 50.6232 172.548 51.3343 172.548 52.7566V60.01C172.548 60.6264 172.288 61.1478 171.766 61.5745C171.292 62.0486 170.723 62.2856 170.059 62.2856ZM173.971 46.3564H178.308C179.494 46.3564 180.631 46.0009 181.722 45.2898C182.86 44.5786 183.429 43.346 183.429 41.5919C183.429 40.2171 182.907 39.1978 181.864 38.5341C180.869 37.8229 179.778 37.4674 178.593 37.4674H174.184C172.999 37.4674 172.406 38.0363 172.406 39.1741V44.4364C172.406 45.7164 172.928 46.3564 173.971 46.3564ZM195.258 62.2856C194.642 62.2856 194.073 62.096 193.552 61.7167C193.077 61.3375 192.84 60.7923 192.84 60.0812V33.0584C192.84 32.2525 193.077 31.6598 193.552 31.2806C194.073 30.8539 194.642 30.6406 195.258 30.6406C195.875 30.6406 196.42 30.8539 196.894 31.2806C197.415 31.6598 197.676 32.2525 197.676 33.0584V60.0812C197.676 60.7923 197.415 61.3375 196.894 61.7167C196.42 62.096 195.875 62.2856 195.258 62.2856ZM212.709 62.2856C210.67 62.2856 208.845 61.8116 207.233 60.8634C205.621 59.9152 204.365 58.6115 203.464 56.9522C202.563 55.2455 202.113 53.3492 202.113 51.2632C202.113 49.2246 202.563 47.3994 203.464 45.7875C204.365 44.1757 205.621 42.9193 207.233 42.0186C208.845 41.0704 210.67 40.5963 212.709 40.5963C214.036 40.5963 215.221 40.8334 216.264 41.3074C217.307 41.7341 218.208 42.303 218.966 43.0142C219.061 42.3504 219.346 41.8526 219.82 41.5208C220.294 41.1415 220.815 40.9519 221.384 40.9519C222.001 40.9519 222.546 41.1652 223.02 41.5919C223.541 41.9712 223.802 42.5638 223.802 43.3697V60.0812C223.802 60.7923 223.541 61.3375 223.02 61.7167C222.546 62.096 222.001 62.2856 221.384 62.2856C220.768 62.2856 220.199 62.096 219.678 61.7167C219.204 61.3375 218.966 60.7923 218.966 60.0812V59.7967C218.208 60.5552 217.307 61.1478 216.264 61.5745C215.221 62.0486 214.036 62.2856 212.709 62.2856ZM213.135 57.8767C214.937 57.8767 216.359 57.2841 217.402 56.0989C218.445 54.8662 218.966 53.2544 218.966 51.2632C218.966 49.3669 218.445 47.8498 217.402 46.712C216.359 45.5742 214.937 45.0053 213.135 45.0053C211.286 45.0053 209.793 45.5742 208.655 46.712C207.517 47.8498 206.948 49.3669 206.948 51.2632C206.948 53.2544 207.517 54.8662 208.655 56.0989C209.793 57.2841 211.286 57.8767 213.135 57.8767ZM227.027 43.0142C227.027 42.2556 227.288 41.663 227.809 41.2363C228.331 40.8097 228.9 40.5963 229.516 40.5963C230.512 40.5963 231.223 41.0941 231.65 42.0897L237.196 55.6722C237.339 56.0514 237.599 56.2411 237.979 56.2411C238.358 56.2411 238.619 56.0752 238.761 55.7433L243.525 42.1608C243.905 41.1178 244.639 40.5963 245.73 40.5963C246.394 40.5963 246.986 40.8097 247.508 41.2363C248.077 41.663 248.361 42.1845 248.361 42.8008C248.361 43.0379 248.29 43.3697 248.148 43.7964L237.267 70.3214C236.888 71.3644 236.153 71.8858 235.063 71.8858C234.447 71.8858 233.854 71.6725 233.285 71.2458C232.764 70.8192 232.503 70.2977 232.503 69.6814C232.503 69.2073 232.574 68.8754 232.716 68.6858L236.201 61.5745C235.205 61.4797 234.518 61.0056 234.138 60.1523L227.169 43.8675C227.075 43.4882 227.027 43.2038 227.027 43.0142Z" fill="white"/>
</svg>
